<?xml version="1.0" standalone="no"?>
<!DOCTYPE svg PUBLIC "-//W3C//DTD SVG 20010904//EN"
 "http://www.w3.org/TR/2001/REC-SVG-20010904/DTD/svg10.dtd">
<svg version="1.0" xmlns="http://www.w3.org/2000/svg"
 width="886.000000pt" height="885.000000pt" viewBox="0 0 886.000000 885.000000"
 preserveAspectRatio="xMidYMid meet">
<metadata>
Created by potrace 1.16, written by Peter Selinger 2001-2019
</metadata>
<g transform="translate(0.000000,885.000000) scale(0.100000,-0.100000)"
fill="#000000" stroke="none">
<path d="M4260 7114 c-558 -40 -1080 -242 -1510 -584 -134 -106 -323 -296
-428 -427 -664 -838 -774 -1972 -283 -2919 256 -494 668 -903 1161 -1154 290
-147 564 -233 884 -277 165 -22 527 -22 691 0 720 99 1364 471 1795 1037 484
636 661 1437 490 2224 -118 542 -437 1075 -863 1442 -400 345 -867 558 -1386
634 -134 19 -432 32 -551 24z m-517 -1904 l687 -401 397 232 c219 128 408 239
421 247 l22 14 0 -158 -1 -159 -395 -230 c-217 -126 -407 -236 -422 -243 -26
-13 -52 1 -712 387 l-685 400 -3 156 c-1 85 -1 155 1 155 2 0 313 -180 690
-400z m2067 -805 l0 -1205 -135 0 -135 0 0 1129 0 1129 128 75 c70 41 130 76
135 76 4 1 7 -541 7 -1204z m-2072 139 c372 -217 680 -399 685 -403 4 -4 6
-76 5 -159 l-3 -152 -548 320 c-302 176 -550 320 -553 320 -2 0 -4 -286 -4
-635 l0 -635 -135 0 -135 0 0 870 c0 479 2 870 5 870 3 0 310 -178 683 -396z"/>
</g>
</svg>
